%
M48
M72
T01C0.0240
T02C0.0320
T03C0.0354
T04C0.0400
T05C0.0440
T06C0.0472
T07C0.0590
T08C0.1100
T09C0.1260
T10C0.1300
%
T01
X24213Y17640
X26713Y17140
X26213Y23140
X27213Y23140
X24213Y25890
X17713Y23890
X28213Y33640
X31463Y33640
X23463Y38390
X23213Y39390
X22213Y40390
X19463Y40390
X18213Y41640
X16963Y42640
X14713Y46890
X25213Y40640
X28213Y47140
X30713Y48890
X31213Y47640
X31713Y47140
X34963Y49390
X36463Y48640
X41463Y53140
X46463Y48890
X46213Y48390
X46963Y49140
X44713Y48390
X44713Y46890
X44713Y46140
X46213Y44890
X45713Y42390
X44713Y42390
X43713Y42390
X44713Y40140
X42963Y39140
X47963Y36890
X49713Y35890
X48963Y33890
X48463Y31140
X46963Y30140
X48463Y28640
X48963Y28890
X53463Y29890
X54213Y30640
X55463Y32390
X54963Y33640
X54463Y34140
X53963Y34640
X53213Y32890
X56463Y33640
X56463Y36140
X56213Y36890
X58213Y36140
X58713Y37390
X55213Y41140
X53963Y43140
X52463Y43140
X52463Y41640
X55463Y43890
X56963Y46890
X56963Y48640
X60213Y50890
X60463Y51890
X59213Y51890
X52463Y52140
X48463Y52140
X50213Y47390
X49963Y46890
X59713Y43890
X60713Y44390
X70213Y32640
X67963Y29640
X59713Y32140
X58713Y30890
X57963Y31390
X57963Y27390
X54713Y25390
X54213Y24890
X57213Y24140
X58213Y23640
X56213Y21890
X57963Y20140
X58963Y20890
X60963Y20890
X55213Y16640
X50963Y16640
X43713Y17140
X38213Y22640
X35463Y23890
X38713Y25890
X42963Y23640
X39963Y33890
X25713Y47890
X29713Y54140
T02
X29113Y52790
X31113Y52790
X34700Y52641
X34650Y54091
X37650Y54091
X37700Y52641
X40200Y52641
X40250Y54091
X43250Y54091
X43200Y52641
X51863Y45590
X53863Y45590
X43713Y43140
X42213Y41140
X41213Y40140
X42213Y39140
X40713Y37140
X39213Y37140
X37713Y39140
X36713Y40140
X37713Y41140
X36213Y43140
X34713Y43140
X33213Y41140
X32213Y40140
X33213Y39140
X31713Y37140
X30213Y37140
X28713Y39140
X27713Y40140
X28713Y41140
X27213Y43140
X25713Y43140
X24213Y41140
X23213Y40140
X24213Y39140
X22713Y37140
X21213Y37140
X19713Y39140
X18713Y40140
X19713Y41140
X18213Y43140
X16713Y43890
X16713Y44890
X16713Y45890
X16713Y46890
X16713Y47890
X16713Y48890
X16713Y49890
X16713Y50890
X16213Y53040
X14213Y53040
X11913Y51340
X13713Y50890
X13713Y49890
X13713Y48890
X13713Y47890
X13713Y46890
X13713Y45890
X13713Y44890
X13713Y43890
X11913Y43190
X11913Y45190
X11913Y46290
X11913Y48290
X11913Y49340
X14213Y42140
X16213Y42140
X21213Y43140
X22713Y43140
X25713Y37140
X27213Y37140
X30213Y43140
X31713Y43140
X34713Y37140
X36213Y37140
X39213Y43140
X40713Y43140
X43713Y37140
X51663Y35190
X53663Y35190
X52213Y30640
X50713Y30640
X50713Y29140
X52213Y29140
X52213Y27640
X50713Y27640
X50713Y26140
X52213Y26140
X55213Y26140
X55213Y27640
X56713Y27640
X56713Y26140
X59713Y26140
X59713Y27640
X61213Y27640
X61213Y26140
X64213Y26140
X64213Y27640
X64213Y29140
X64213Y30640
X61213Y30640
X59713Y30640
X59713Y29140
X61213Y29140
X56713Y29140
X55213Y29140
X55213Y30640
X56713Y30640
X63645Y34388
X63645Y35388
X63645Y36388
X63645Y37388
X66645Y37388
X66645Y36388
X66645Y35388
X66645Y34388
X70213Y39140
X70213Y42140
X70213Y44140
X70213Y47140
X70213Y49140
X70213Y51140
X65738Y42232
X64338Y42232
X47713Y30640
X47713Y29140
X47713Y27640
X47713Y26140
X46313Y24940
X44813Y24940
X43313Y24940
X41813Y24940
X40363Y24940
X38863Y24940
X37363Y24940
X35863Y24940
X35863Y21940
X37363Y21940
X38863Y21940
X40363Y21940
X41813Y21940
X43313Y21940
X44813Y21940
X46313Y21940
X47713Y23140
X49713Y23140
X50713Y23140
X52713Y23140
X54213Y23140
X56213Y23140
X57713Y23140
X59713Y23140
X60313Y20190
X60313Y17190
X22774Y17307
X21774Y17307
X20774Y17307
X19774Y17307
X18774Y17307
X18774Y20307
X19774Y20307
X20774Y20307
X21774Y20307
X22774Y20307
X22797Y22051
X21797Y22051
X20797Y22051
X19797Y22051
X18797Y22051
X18797Y25051
X19797Y25051
X20797Y25051
X21797Y25051
X22797Y25051
X18213Y37140
T03
X20713Y45140
X21713Y45140
X22713Y45140
X23713Y45140
X24713Y45140
X25713Y45140
X26713Y45140
X27713Y45140
X28713Y45140
X29713Y45140
X30713Y45140
X31713Y45140
X32713Y45140
X33713Y45140
X34713Y45140
X35713Y45140
X36713Y45140
X37713Y45140
X38713Y45140
X39713Y45140
X39713Y51140
X38713Y51140
X37713Y51140
X36713Y51140
X35713Y51140
X34713Y51140
X33713Y51140
X32713Y51140
X31713Y51140
X30713Y51140
X29713Y51140
X28713Y51140
X27713Y51140
X26713Y51140
X25713Y51140
X24713Y51140
X23713Y51140
X22713Y51140
X21713Y51140
X20713Y51140
T04
X20859Y53736
X21859Y53736
X22859Y53736
X23859Y53736
X24859Y53736
X25859Y53736
X15263Y26900
X15263Y25820
X15263Y24740
X15263Y23660
X15263Y22580
X14263Y23120
X14263Y24200
X14263Y25280
X14263Y26360
X64095Y51701
X65095Y51701
X66095Y51701
T05
X43213Y35200
X42213Y35200
X41213Y35200
X38713Y35200
X37713Y35200
X36713Y35200
X34213Y35200
X33213Y35200
X32213Y35200
X29713Y35200
X28713Y35200
X27713Y35200
X25213Y35200
X24213Y35200
X23213Y35200
X20713Y35200
X19713Y35200
X18713Y35200
X28153Y54670
X32153Y54670
X65213Y30640
X65213Y29140
X65213Y27640
X65213Y26140
X69213Y26140
X69213Y27640
X69213Y29140
X69213Y30640
T06
X68098Y20281
X67098Y20281
X67098Y18313
X68098Y18313
X64598Y18313
X63598Y18313
X63598Y20281
X64598Y20281
X57098Y20281
X56098Y20281
X55098Y20281
X54098Y20281
X53098Y20281
X52098Y20281
X51098Y20281
X50098Y20281
X50098Y18313
X51098Y18313
X52098Y18313
X53098Y18313
X54098Y18313
X55098Y18313
X56098Y18313
X57098Y18313
X47598Y18313
X46598Y18313
X45598Y18313
X44598Y18313
X44598Y20281
X45598Y20281
X46598Y20281
X47598Y20281
X42098Y20281
X41098Y20281
X40098Y20281
X39098Y20281
X39098Y18313
X40098Y18313
X41098Y18313
X42098Y18313
X36598Y18313
X35598Y18313
X34598Y18313
X33598Y18313
X32598Y18313
X31598Y18313
X30598Y18313
X29598Y18313
X28598Y18313
X27598Y18313
X26598Y18313
X25598Y18313
X25598Y20281
X26598Y20281
X27598Y20281
X28598Y20281
X29598Y20281
X30598Y20281
X31598Y20281
X32598Y20281
X33598Y20281
X34598Y20281
X35598Y20281
X36598Y20281
X49213Y38140
X50213Y38140
X51213Y38140
X52213Y38140
X53213Y38140
X54213Y38140
X55213Y38140
X56213Y38140
X55713Y40140
X54713Y40140
X53713Y40140
X52713Y40140
X51713Y40140
X50713Y40140
X49713Y40140
X49213Y48640
X50213Y48640
X51213Y48640
X52213Y48640
X53213Y48640
X54213Y48640
X55213Y48640
X56213Y48640
X55713Y50640
X54713Y50640
X53713Y50640
X52713Y50640
X51713Y50640
X50713Y50640
X49713Y50640
T07
X64263Y22940
X70263Y22940
T08
X57713Y39860
X47713Y39860
X47713Y50360
X57713Y50360
T09
X11907Y14884
X11905Y54951
X70467Y54932
X70477Y14876
T10
X42213Y28300
X37713Y28300
X33213Y28300
X28713Y28300
X24213Y28300
X19713Y28300
X14763Y29670
X14763Y19810
M30
